<?xml version="1.0" encoding="UTF-8" standalone="no"?>
<svg
   width="630"
   height="190"
   viewBox="0 0 630 190"
   fill="none"
   version="1.1"
   id="svg14"
   sodipodi:docname="logo-white.svg"
   inkscape:version="1.1.2 (0a00cf5339, 2022-02-04)"
   inkscape:export-filename="/home/esvux/Consultorias/ViTAG/vitag-widget/public/assets/imgs/logo-white.png"
   inkscape:export-xdpi="111.9248"
   inkscape:export-ydpi="111.9248"
   xmlns:inkscape="http://www.inkscape.org/namespaces/inkscape"
   xmlns:sodipodi="http://sodipodi.sourceforge.net/DTD/sodipodi-0.dtd"
   xmlns="http://www.w3.org/2000/svg"
   xmlns:svg="http://www.w3.org/2000/svg">
  <defs
     id="defs18" />
  <sodipodi:namedview
     id="namedview16"
     pagecolor="#ffffff"
     bordercolor="#666666"
     borderopacity="1.0"
     inkscape:pageshadow="2"
     inkscape:pageopacity="0.0"
     inkscape:pagecheckerboard="0"
     showgrid="false"
     inkscape:zoom="1.1174603"
     inkscape:cx="194.19034"
     inkscape:cy="77.40767"
     inkscape:window-width="1920"
     inkscape:window-height="1016"
     inkscape:window-x="1920"
     inkscape:window-y="27"
     inkscape:window-maximized="1"
     inkscape:current-layer="svg14" />
  <path
     d="M119.968 43.9771L78.0127 162.26H41.955L0 43.9771H30.6659L59.9839 133.279L89.4703 43.9771H119.968Z"
     fill="#1A1A1A"
     id="path2"
     style="fill:#ffffff" />
  <path
     d="M151.195 58.4673C146.14 58.4673 141.984 57.007 138.727 54.0864C135.581 51.0536 134.009 47.3467 134.009 42.9658C134.009 38.4727 135.581 34.7658 138.727 31.8452C141.984 28.8123 146.14 27.2959 151.195 27.2959C156.138 27.2959 160.182 28.8123 163.327 31.8452C166.584 34.7658 168.213 38.4727 168.213 42.9658C168.213 47.3467 166.584 51.0536 163.327 54.0864C160.182 57.007 156.138 58.4673 151.195 58.4673ZM165.517 68.2399V162.26H136.705V68.2399H165.517Z"
     fill="#1A1A1A"
     id="path4"
     style="fill:#ffffff" />
  <path
     id="path6"
     d="M 206.29297 0.0078125 C 201.01067 0.21321453 196.29492 4.2640169 196.29492 9.8183594 L 196.29492 179.73633 C 196.29492 187.14233 204.67637 191.87477 211.60938 188.38477 L 380.34961 103.42578 C 387.68561 99.732181 387.68561 89.824559 380.34961 86.130859 L 211.60938 1.171875 C 209.87613 0.299145 208.05373 -0.060654844 206.29297 0.0078125 z M 238.93945 39 L 257.25781 39 L 257.25781 67.042969 L 273.36523 67.042969 L 273.36523 82.1875 L 257.25781 82.1875 L 257.25781 117.48047 C 257.25781 119.93947 257.81931 121.73986 258.94531 122.88086 C 260.15831 123.93386 262.15087 124.46094 264.92188 124.46094 L 273.36523 124.46094 L 273.36523 140 L 261.93359 140 C 246.60459 140 238.93945 132.45061 238.93945 117.34961 L 238.93945 82.1875 L 230.36523 82.1875 L 230.36523 67.042969 L 238.93945 67.042969 L 238.93945 39 z "
     style="fill:#ffffff;fill-opacity:1" />
  <path
     d="M474.254 133.026H430.109L423.032 153.919H392.872L435.669 35.6362H469.031L511.828 153.919H481.331L474.254 133.026ZM466.84 110.785L452.181 67.4816L437.691 110.785H466.84Z"
     fill="#1A1A1A"
     id="path10"
     style="fill:#ffffff" />
  <path
     d="M595.233 73.2946C593.099 69.3631 590.01 66.3864 585.966 64.3645C582.034 62.2302 577.373 61.1631 571.981 61.1631C562.658 61.1631 555.188 64.2521 549.571 70.4302C543.955 76.496 541.147 84.6399 541.147 94.8619C541.147 105.758 544.067 114.295 549.908 120.473C555.862 126.539 564.006 129.572 574.34 129.572C581.417 129.572 587.37 127.774 592.2 124.18C597.143 120.585 600.737 115.418 602.984 108.678H566.421V87.4481H629.1V114.239C626.966 121.428 623.315 128.111 618.148 134.289C613.094 140.468 606.635 145.466 598.772 149.285C590.908 153.105 582.034 155.014 572.149 155.014C560.467 155.014 550.021 152.487 540.81 147.432C531.711 142.265 524.578 135.132 519.411 126.033C514.356 116.935 511.829 106.544 511.829 94.8619C511.829 83.1796 514.356 72.7892 519.411 63.6905C524.578 54.4795 531.711 47.3466 540.81 42.2917C549.908 37.1246 560.299 34.541 571.981 34.541C586.134 34.541 598.041 37.9671 607.702 44.8191C617.474 51.6712 623.933 61.1631 627.079 73.2946H595.233Z"
     fill="#1A1A1A"
     id="path12"
     style="fill:#ffffff" />
</svg>
